<?xml version="1.0" encoding="UTF-8" standalone="no"?>
<svg
   enable-background="new 0 0 550 550"
   id="Layer_1"
   version="1.1"
   viewBox="0 0 512 512"
   xml:space="preserve"
   sodipodi:docname="icon-fb.svg"
   width="512"
   height="512"
   inkscape:version="1.1.2 (b8e25be833, 2022-02-05)"
   xmlns:inkscape="http://www.inkscape.org/namespaces/inkscape"
   xmlns:sodipodi="http://sodipodi.sourceforge.net/DTD/sodipodi-0.dtd"
   xmlns="http://www.w3.org/2000/svg"
   xmlns:svg="http://www.w3.org/2000/svg"><defs
     id="defs31" /><sodipodi:namedview
     id="namedview29"
     pagecolor="#ffffff"
     bordercolor="#666666"
     borderopacity="1.0"
     inkscape:pageshadow="2"
     inkscape:pageopacity="0.0"
     inkscape:pagecheckerboard="0"
     showgrid="false"
     fit-margin-top="0"
     fit-margin-left="0"
     fit-margin-right="0"
     fit-margin-bottom="0"
     inkscape:zoom="1.4163636"
     inkscape:cx="255.58408"
     inkscape:cy="255.9371"
     inkscape:window-width="1920"
     inkscape:window-height="1001"
     inkscape:window-x="-9"
     inkscape:window-y="-9"
     inkscape:window-maximized="1"
     inkscape:current-layer="Layer_1" /><g
     id="g26"
     transform="translate(-19,-19)"><g
       id="g24"><circle
         cx="275"
         cy="275"
         fill="#3f65a6"
         r="256"
         id="circle21" /><path
         d="m 236.1,190.8 c 0,7.4 0,40.4 0,40.4 h -29.6 v 49.4 h 29.6 V 416 h 60.8 V 280.5 h 40.8 c 0,0 3.8,-23.7 5.7,-49.6 -5.3,0 -46.2,0 -46.2,0 0,0 0,-28.7 0,-33.8 0,-5 6.6,-11.8 13.2,-11.8 6.5,0 20.3,0 33.1,0 0,-6.7 0,-30 0,-51.4 -17.1,0 -36.5,0 -45,0 -63.9,0.1 -62.4,49.5 -62.4,56.9 z"
         fill="#ffffff"
         id="Facebook_4_" /></g></g></svg>
